<?xml version="1.0" encoding="utf-8"?>
<!-- Generator: Adobe Illustrator 23.0.0, SVG Export Plug-In . SVG Version: 6.00 Build 0)  -->
<svg version="1.1" id="圖層_1" xmlns="http://www.w3.org/2000/svg" xmlns:xlink="http://www.w3.org/1999/xlink" x="0px" y="0px"
	 viewBox="0 0 60 60" style="enable-background:new 0 0 60 60;" xml:space="preserve">
<style type="text/css">
	.st0{fill:none;stroke:#FFFFFF;stroke-width:6;stroke-miterlimit:10;}
</style>
<g>
	<g id="Group_451" transform="translate(12.813 0.75)">
		<path id="Path_234" class="st0" d="M-3,22.8c0.2-11,9.2-19.7,20.2-19.5l0,0c11-0.2,19.9,8.7,20.2,19.5"/>
		<path id="Path_235" class="st0" d="M36.7,40.6c-2.5,8.5-10.6,14.6-19.5,14.6"/>
		<path id="Rectangle_285" class="st0" d="M37.4,22.8L37.4,22.8c3.1,0,5.8,2.5,5.8,5.8v5.4c0,3.1-2.5,5.8-5.8,5.8l0,0
			c-3.1,0-5.8-2.5-5.8-5.8v-5.4C31.5,25.5,34.2,22.8,37.4,22.8z"/>
		<path id="Rectangle_286" class="st0" d="M-3,22.8L-3,22.8c3.1,0,5.8,2.5,5.8,5.8v5.4c0,3.1-2.5,5.8-5.8,5.8l0,0
			c-3.1,0-5.8-2.5-5.8-5.8v-5.4C-8.8,25.5-6.1,22.8-3,22.8z"/>
	</g>
</g>
</svg>
