<?xml version="1.0" encoding="utf-8"?>
<!-- Generator: Adobe Illustrator 25.0.0, SVG Export Plug-In . SVG Version: 6.00 Build 0)  -->
<svg version="1.1" id="圖層_1" xmlns="http://www.w3.org/2000/svg" xmlns:xlink="http://www.w3.org/1999/xlink" x="0px" y="0px"
	 viewBox="0 0 60 60" style="enable-background:new 0 0 60 60;" xml:space="preserve">
<style type="text/css">
	.st0{fill:#ADADAE;}
</style>
<g>
	<g>
		<path class="st0" d="M15.3,52.6c-0.3,0-0.5-0.1-0.8-0.3c-0.4-0.4-0.4-1-0.4-1.1c0-0.4,0.4-1.8,2.2-8.3l0.2-0.6
			C9.2,38.5,4.8,32,4.8,25C4.8,13.5,16.6,4.1,31,4.1c14.4,0,26.2,9.4,26.2,20.9S45.4,45.8,31,45.8c-1.5,0-3-0.2-4.4-0.4
			c-0.6,0.4-1.8,1.2-3.1,2.1c-5,3.4-7.2,4.8-7.8,5C15.7,52.6,15.5,52.6,15.3,52.6z M31,5.6C17.4,5.6,6.3,14.3,6.3,25
			c0,6.6,4.3,12.7,11.4,16.3l0.5,0.3l-0.5,1.8c-0.5,1.8-1.9,6.4-2.1,7.6c1-0.5,4.8-3.1,7.1-4.7c1.5-1,2.8-1.9,3.3-2.2l0.2-0.1l0.3,0
			c1.3,0.2,2.9,0.4,4.4,0.4c13.6,0,24.7-8.7,24.7-19.4C55.7,14.3,44.6,5.6,31,5.6z"/>
		<g>
			<path class="st0" d="M17.4,21.2v9.7h-1v-9.7H13v-0.8h7.9v0.8H17.4z"/>
			<path class="st0" d="M30.6,30.9l-1.4-3.2h-5.1l-1.4,3.2h-1.2l4.5-10.5h1l4.5,10.5H30.6z M26.7,21.4L26.7,21.4
				c0,0.2-0.2,0.4-0.2,0.4c0,0.2-0.8,1.8-2,4.9h4.3l-2-4.7C26.8,22,26.7,21.8,26.7,21.4z"/>
			<path class="st0" d="M33.6,30.9V20.4h1v9.7h4.7v0.8C39.3,30.9,33.6,30.9,33.6,30.9z"/>
			<path class="st0" d="M47.6,30.9L42.6,26c-0.2-0.2-0.2-0.2-0.2-0.2l0,0v5.1h-1V20.4h1v4.9l0,0l0.2-0.2l0.2-0.2l4.7-4.5h1.2
				l-5.1,5.1l5.5,5.3H47.6z"/>
		</g>
	</g>
</g>
</svg>
